<?xml version="1.0" standalone="no"?>
<!DOCTYPE svg PUBLIC "-//W3C//DTD SVG 20010904//EN"
 "http://www.w3.org/TR/2001/REC-SVG-20010904/DTD/svg10.dtd">
<svg version="1.0" xmlns="http://www.w3.org/2000/svg"
 width="351.000000pt" height="351.000000pt" viewBox="0 0 351.000000 351.000000"
 preserveAspectRatio="xMidYMid meet">
<metadata>
Created by potrace 1.14, written by Peter Selinger 2001-2017
</metadata>
<g transform="translate(0.000000,351.000000) scale(0.100000,-0.100000)"
fill="#000000" stroke="none">
<path d="M1555 3290 c-128 -20 -278 -77 -350 -134 l-29 -23 66 1 c59 1 71 -2
109 -30 56 -41 143 -181 142 -230 -1 -19 2 -34 6 -34 5 0 16 -19 26 -42 9 -24
21 -51 26 -61 5 -10 7 -22 4 -27 -3 -5 1 -24 9 -42 33 -80 44 -126 33 -137 -8
-8 -8 -11 0 -11 6 0 14 -7 17 -16 4 -12 2 -15 -9 -10 -10 4 -15 -1 -15 -14 0
-29 -26 -24 -49 9 -11 15 -48 82 -81 147 -33 66 -76 145 -95 178 -19 32 -35
64 -35 71 0 6 -9 20 -20 30 -19 18 -20 17 -20 -5 0 -30 37 -103 73 -143 33
-37 67 -106 67 -137 0 -11 7 -23 15 -26 8 -4 15 -15 15 -25 0 -10 5 -19 10
-19 6 0 10 -9 10 -19 0 -11 5 -21 11 -23 19 -6 22 -68 4 -74 -18 -7 -45 12
-41 29 1 7 1 9 -1 5 -10 -16 -53 15 -125 88 -42 44 -88 95 -102 114 -39 55
-118 221 -123 261 -6 41 20 131 43 149 20 18 18 33 -4 21 -33 -18 -160 -146
-226 -228 -36 -46 -86 -125 -111 -176 -44 -91 -84 -236 -85 -305 0 -37 8 -37
79 -5 45 20 113 13 183 -20 31 -15 64 -27 73 -27 11 0 15 -5 12 -14 -8 -19 10
-32 53 -39 l35 -7 -22 19 c-13 11 -23 25 -23 33 0 8 -13 22 -30 31 -16 10 -30
22 -30 28 0 5 -6 9 -13 9 -11 0 -127 105 -127 116 0 3 -13 22 -30 42 -37 46
-46 90 -30 145 26 96 156 113 260 35 24 -18 51 -38 60 -43 10 -6 30 -26 46
-45 16 -19 31 -37 35 -40 3 -3 14 -20 24 -37 11 -18 23 -33 26 -33 4 0 22 -26
40 -57 18 -32 44 -73 57 -90 13 -18 20 -33 16 -33 -5 0 -4 -4 3 -8 8 -5 8 -12
-2 -25 -13 -17 -19 -14 -97 45 -45 35 -125 105 -176 156 -86 87 -110 102 -119
75 -5 -13 45 -73 59 -73 24 0 288 -234 277 -245 -3 -2 -14 -6 -25 -8 -10 -2
-28 -8 -40 -14 -17 -10 -28 -7 -63 13 -51 29 -49 28 -53 7 -5 -27 46 -76 71
-68 35 11 24 -15 -11 -27 -30 -11 -30 -12 -12 -26 19 -14 18 -15 -1 -8 -36 13
-238 45 -247 40 -4 -3 -8 0 -8 5 0 6 -10 11 -22 11 -38 0 46 -45 132 -70 89
-26 102 -35 61 -43 -34 -7 -43 -27 -12 -27 19 0 31 -18 31 -47 0 -13 -3 -13
-15 -3 -12 10 -18 10 -29 1 -11 -10 -21 -9 -46 4 -17 9 -34 14 -39 11 -15 -10
-203 34 -243 56 -21 12 -52 42 -68 66 -15 23 -31 38 -35 32 -10 -16 4 -144 26
-245 20 -92 78 -226 130 -302 33 -48 36 -63 12 -63 -27 0 -123 -48 -123 -61 0
-7 7 -8 18 -4 102 41 232 44 315 7 32 -14 47 -17 45 -9 -2 7 22 35 52 62 59
53 83 80 93 108 9 25 34 21 53 -8 9 -14 23 -25 30 -25 22 0 17 -15 -24 -67
-56 -70 -132 -130 -142 -112 -5 7 -11 11 -15 8 -3 -3 3 -13 13 -22 17 -15 21
-15 57 11 55 39 77 61 114 115 34 50 78 77 124 77 14 0 30 7 37 15 10 12 15
13 20 4 11 -17 30 -2 30 24 0 33 11 67 22 67 5 0 7 -8 4 -17 -3 -10 -8 -66
-11 -125 -4 -91 -9 -118 -35 -174 -16 -36 -43 -82 -60 -104 -16 -21 -30 -39
-30 -41 0 -6 -158 -169 -164 -169 -2 0 -4 30 -3 67 3 95 -17 93 -32 -4 -14
-89 -49 -210 -62 -219 -12 -7 -12 -24 0 -24 8 0 47 56 61 87 3 6 51 59 108
117 56 58 102 110 102 116 0 5 6 10 14 10 8 0 22 10 30 22 26 37 31 11 7 -35
l-22 -42 26 30 c20 24 24 37 20 62 -3 17 -1 34 5 38 5 3 10 -1 10 -10 0 -9 4
-14 10 -10 6 4 5 14 -1 28 -8 18 -4 40 16 100 35 104 50 225 38 305 -6 34 -7
64 -5 67 3 3 16 5 29 5 13 0 23 5 23 10 0 6 -17 10 -37 10 -45 0 -111 31 -145
67 -36 40 -56 132 -39 181 22 62 76 110 138 123 67 13 93 7 137 -31 63 -56 88
-228 40 -282 -10 -11 -32 -29 -49 -39 -26 -16 -27 -19 -9 -19 21 0 69 31 90
58 9 12 20 9 68 -18 48 -28 64 -32 106 -28 46 5 49 4 55 -21 10 -45 48 -97 99
-136 35 -26 51 -34 59 -26 6 6 21 11 33 11 30 0 84 -20 84 -32 0 -5 9 -21 20
-35 11 -14 20 -39 20 -55 0 -38 -25 -85 -49 -93 -25 -8 -73 17 -99 49 -16 21
-25 24 -57 20 -44 -5 -108 -41 -102 -57 6 -18 24 -19 41 -2 15 15 16 15 16 -4
0 -22 27 -41 59 -41 14 0 23 -10 31 -32 l10 -33 -3 38 c-3 34 -1 37 24 37 15
0 29 -3 31 -7 2 -5 29 -25 61 -46 31 -20 57 -43 57 -51 0 -17 38 -51 47 -42 7
7 1 19 -49 94 -46 68 -8 102 46 42 15 -17 38 -35 51 -40 24 -9 84 -93 85 -117
0 -7 -9 -17 -20 -23 -35 -18 -50 -64 -50 -146 0 -60 5 -85 22 -115 22 -39 38
-50 38 -26 0 7 -6 21 -14 32 -22 33 -28 81 -16 139 14 70 41 103 104 131 42
19 60 21 106 15 30 -4 57 -6 59 -4 8 7 -12 24 -31 24 -11 0 -29 11 -40 25 -24
31 -54 35 -38 6 9 -17 4 -21 -40 -36 -40 -13 -54 -14 -65 -5 -8 7 -15 18 -15
24 0 19 -68 109 -120 157 -47 44 -64 79 -39 79 12 0 70 -43 132 -97 23 -21 47
-33 65 -33 l27 1 -24 20 c-42 35 -14 32 54 -6 36 -21 68 -35 71 -32 3 3 -11
15 -33 26 -70 37 -69 34 -34 85 17 26 31 49 31 51 0 1 -21 -4 -47 -12 -39 -12
-58 -12 -100 -3 -35 8 -53 16 -53 26 0 8 -13 20 -30 25 -18 7 -30 18 -30 29 0
10 -7 23 -15 30 -13 11 -13 15 1 41 18 35 36 36 93 4 46 -27 61 -31 61 -16 0
5 -29 23 -64 39 -54 25 -64 34 -68 60 -4 27 -1 31 29 40 69 21 170 -6 218 -59
29 -32 35 -47 35 -84 0 -25 4 -45 9 -45 11 0 77 162 86 213 l7 38 -36 -22
c-32 -18 -46 -20 -104 -15 -37 4 -80 8 -97 9 -17 2 -29 8 -28 15 2 8 -4 9 -22
2 -20 -8 -27 -6 -31 5 -4 10 -20 15 -43 15 -23 0 -38 5 -39 13 -1 6 -4 24 -8
39 -6 26 -5 26 63 34 37 4 92 8 122 8 68 1 81 22 19 31 -24 3 -63 2 -88 -4
-25 -6 -50 -11 -56 -11 -13 0 -36 48 -29 61 4 5 1 9 -4 9 -6 0 -11 -4 -11 -10
0 -5 -4 -10 -10 -10 -17 0 -11 29 8 39 9 5 25 22 34 39 17 28 17 30 -3 51
l-20 22 23 20 c13 10 43 32 68 47 59 35 80 54 80 69 0 7 -2 13 -3 13 -2 0 -45
-22 -96 -50 -51 -27 -96 -50 -100 -50 -5 0 -25 -11 -45 -25 -20 -13 -36 -21
-37 -17 0 4 -2 17 -5 28 -2 12 3 27 11 34 13 11 13 14 -2 26 -17 12 -16 13 7
14 14 0 32 9 40 20 8 11 21 18 30 15 8 -3 21 4 28 15 10 16 9 21 -8 30 -13 7
-18 16 -13 25 13 22 91 75 157 106 78 37 134 38 193 4 38 -23 43 -24 43 -8 0
33 -92 203 -136 251 l-43 47 6 -52 c7 -63 -15 -105 -108 -209 -68 -75 -129
-121 -204 -155 -16 -7 -51 -30 -76 -51 -53 -43 -64 -46 -56 -18 3 10 0 21 -5
22 -5 2 15 30 46 62 31 32 56 62 56 67 0 5 7 9 15 9 8 0 15 5 15 10 0 9 28 39
91 96 9 8 16 20 16 26 0 7 4 21 8 31 25 60 -81 -42 -239 -230 -28 -33 -46 -42
-46 -22 0 6 -7 17 -15 25 -24 24 -19 53 12 60 25 7 25 8 8 20 -16 12 -16 14
-3 14 11 0 15 6 11 18 -2 10 11 40 31 69 19 28 42 66 50 84 15 32 65 105 111
160 41 50 104 60 194 33 23 -7 21 -3 -15 40 -42 51 -164 155 -221 189 l-35 20
16 -31 c9 -18 20 -32 24 -32 4 0 7 -33 7 -72 -2 -74 -34 -180 -73 -238 -16
-24 -18 -29 -21 -50 -2 -19 -20 -10 -23 13 -3 20 -5 19 -28 -15 -14 -21 -31
-38 -38 -38 -7 0 -10 -5 -7 -10 4 -6 2 -16 -4 -23 -5 -7 -8 -24 -7 -39 2 -18
-1 -25 -10 -21 -7 2 -22 -9 -34 -25 -24 -33 -56 -36 -53 -6 2 11 4 36 7 56 2
20 15 56 28 80 14 24 29 58 33 75 3 18 14 37 23 43 9 5 14 10 10 10 -4 0 1 23
12 50 22 55 25 80 11 80 -14 0 -66 -99 -81 -152 -7 -27 -18 -48 -26 -48 -7 0
-15 -14 -19 -31 -4 -17 -13 -42 -21 -57 -8 -15 -14 -34 -14 -43 0 -9 -7 -20
-16 -23 -9 -3 -14 -12 -11 -20 3 -8 -2 -16 -11 -19 -20 -5 -47 19 -32 28 6 3
10 13 10 22 0 12 -3 13 -13 4 -22 -17 -26 -3 -10 30 10 20 13 42 8 67 l-7 37
-19 -24 c-13 -16 -16 -28 -10 -34 11 -11 -5 -46 -27 -60 -10 -7 -10 -12 -2
-22 8 -10 8 -19 1 -34 -6 -11 -11 -40 -11 -65 0 -60 -8 -80 -26 -65 -12 9 -12
15 -2 27 11 12 10 16 0 20 -10 3 -10 9 3 28 13 21 14 24 1 24 -9 0 -13 6 -10
14 3 8 1 17 -4 20 -5 3 -10 81 -11 173 -2 175 -7 233 -22 233 -5 0 -10 -12
-10 -27 -1 -16 -2 -39 -3 -53 -1 -14 -3 -67 -4 -119 -2 -78 -4 -92 -17 -87 -8
3 -15 1 -15 -4 0 -6 -7 -10 -15 -10 -20 0 -19 -13 4 -34 28 -25 33 -64 9 -77
-22 -12 -42 -3 -34 16 2 7 -2 16 -10 19 -8 3 -14 16 -14 30 0 14 -4 27 -8 30
-20 12 -62 272 -62 383 0 98 35 173 94 199 l31 13 -35 -1 c-19 0 -57 -4 -85
-8z m105 -711 c0 -5 -7 -9 -15 -9 -15 0 -20 12 -9 23 8 8 24 -1 24 -14z m430
-116 c0 -5 -4 -14 -9 -22 -11 -17 -32 -5 -24 14 5 15 33 21 33 8z m-57 -208
c50 -21 84 -61 97 -114 14 -61 1 -104 -47 -153 -26 -27 -32 -38 -21 -38 10 0
34 21 55 46 35 42 41 45 76 41 22 -3 57 -20 87 -43 41 -32 50 -44 56 -79 9
-65 -21 -112 -94 -149 -40 -21 -116 -19 -150 2 -34 22 -57 71 -54 117 3 51 -9
71 -34 57 -11 -6 -43 -14 -71 -20 -48 -8 -53 -7 -80 19 -48 44 -58 80 -45 161
12 77 37 114 102 148 43 23 77 25 123 5z m385 -43 c2 -7 -3 -12 -12 -12 -9 0
-16 7 -16 16 0 17 22 14 28 -4z m-1303 -226 c44 -3 81 -10 83 -16 3 -8 8 -8
17 0 10 8 14 4 17 -15 3 -14 2 -25 -1 -26 -3 -1 -21 -2 -40 -4 -18 -2 -37 -8
-41 -15 -4 -6 -51 -18 -105 -25 -53 -8 -100 -16 -103 -19 -13 -14 33 -17 100
-7 64 9 145 15 172 12 5 -1 1 -10 -10 -22 -15 -16 -16 -22 -5 -29 31 -19 -287
-90 -341 -77 -51 13 -71 40 -76 100 -5 65 8 106 41 126 44 28 74 30 292 17z
m325 -35 c0 -5 9 -13 20 -16 11 -3 20 -15 20 -25 0 -11 11 -27 25 -36 55 -36
20 -137 -64 -183 -42 -23 -43 -23 -84 -6 -63 27 -87 58 -87 110 0 24 5 55 11
68 20 45 159 121 159 88z m-190 -221 c25 -16 -55 -99 -134 -138 -65 -32 -68
-33 -87 -16 -19 17 -17 18 48 55 38 21 85 54 106 73 41 39 45 40 67 26z"/>
<path d="M1925 2204 c-61 -20 -95 -60 -94 -108 l1 -41 8 35 c10 42 59 86 103
93 58 9 97 -36 73 -84 -13 -26 -36 -37 -36 -17 0 22 -46 60 -67 56 -25 -4 -30
-54 -7 -79 23 -26 85 -26 108 0 28 31 32 91 7 122 -26 34 -49 39 -96 23z"/>
<path d="M1840 2031 c0 -13 29 -41 42 -41 7 0 1 11 -12 25 -26 27 -30 30 -30
16z"/>
<path d="M2150 1953 c-38 -49 -13 -123 40 -123 32 0 45 22 30 51 -11 20 -40
27 -40 9 0 -5 -4 -10 -10 -10 -17 0 -11 46 8 63 25 22 48 21 72 -3 32 -32 26
-76 -15 -117 -33 -33 -39 -35 -87 -31 -47 5 -50 4 -32 -9 21 -16 71 -10 115
12 36 19 62 85 48 122 -26 69 -89 86 -129 36z"/>
<path d="M823 1848 c2 -7 16 -13 32 -13 16 0 30 6 33 13 2 8 -8 12 -33 12 -25
0 -35 -4 -32 -12z"/>
<path d="M1348 1893 c-32 -20 -42 -53 -26 -88 10 -23 17 -26 52 -23 30 2 42 8
44 21 5 25 -28 34 -44 13 -16 -23 -34 -12 -34 20 0 16 8 28 25 36 37 17 80 -5
99 -50 8 -21 15 -29 15 -19 2 43 -52 107 -89 107 -8 0 -27 -8 -42 -17z"/>
<path d="M1450 1761 c-13 -25 -73 -45 -111 -37 -16 3 -29 3 -29 1 0 -9 59 -35
79 -35 24 0 66 37 75 68 9 27 0 29 -14 3z"/>
<path d="M1807 3264 c52 -50 63 -88 70 -244 4 -97 2 -135 -10 -168 -14 -39 -9
-60 12 -48 8 5 21 77 25 146 1 19 5 42 8 50 4 8 18 47 32 86 15 39 37 81 49
92 25 24 92 54 100 46 3 -3 16 -3 28 1 l23 8 -25 12 c-46 25 -150 46 -252 52
l-101 6 41 -39z"/>
<path d="M1712 3228 c-22 -22 -11 -108 14 -108 7 0 16 15 19 34 12 64 -5 102
-33 74z"/>
<path d="M2153 3118 c-13 -18 -32 -86 -26 -92 11 -11 41 14 53 43 18 45 -2 82
-27 49z"/>
<path d="M1196 3063 c-14 -14 -4 -41 24 -68 l30 -29 0 28 c0 44 -34 88 -54 69z"/>
<path d="M2460 2830 c-21 -21 -27 -60 -10 -60 19 0 73 57 66 68 -11 18 -34 14
-56 -8z"/>
<path d="M890 2713 c0 -10 4 -23 8 -30 10 -15 61 -35 72 -28 15 9 -10 52 -37
64 -33 15 -43 14 -43 -6z"/>
<path d="M2678 2464 c-27 -14 -54 -51 -45 -61 8 -8 78 29 84 44 9 24 -10 32
-39 17z"/>
<path d="M2807 2393 c-11 -63 -48 -107 -124 -143 -37 -17 -89 -43 -114 -56
-26 -13 -55 -24 -65 -24 -16 0 -16 -2 -4 -10 8 -5 19 -5 25 -1 5 4 44 8 85 10
67 2 79 -1 118 -26 26 -17 49 -43 59 -66 9 -20 21 -33 25 -29 13 13 28 280 18
330 -10 57 -16 61 -23 15z"/>
<path d="M794 2269 c-9 -16 16 -38 54 -45 43 -9 44 19 2 41 -35 18 -46 19 -56
4z"/>
<path d="M1523 2185 c-32 -23 -46 -80 -27 -116 26 -52 120 -60 138 -13 10 25
-21 66 -46 62 -29 -4 -34 -25 -6 -24 28 1 32 -31 5 -48 -13 -8 -24 -7 -45 4
-49 28 -42 98 13 125 46 21 84 13 121 -26 30 -32 36 -78 14 -118 -13 -26 -67
-61 -93 -61 -10 0 -15 -4 -12 -10 11 -18 -43 -23 -60 -6 -21 20 -36 21 -28 1
3 -9 21 -22 40 -30 32 -14 37 -13 96 16 71 35 97 74 97 142 0 50 -5 59 -50 92
-40 30 -122 35 -157 10z"/>
<path d="M2425 2080 c-3 -5 -1 -10 4 -10 6 0 11 5 11 10 0 6 -2 10 -4 10 -3 0
-8 -4 -11 -10z"/>
<path d="M2688 2063 c-25 -6 -22 -30 5 -35 35 -6 58 2 55 20 -3 17 -29 24 -60
15z"/>
<path d="M2560 1710 c0 -14 40 -32 57 -26 12 5 13 9 3 21 -14 17 -60 21 -60 5z"/>
<path d="M2157 1683 c-11 -11 -8 -24 6 -22 36 5 69 -3 87 -21 24 -24 25 -49 6
-76 -14 -18 -16 -18 -32 -2 -17 17 -17 18 1 32 19 14 19 15 2 22 -45 17 -48
-41 -4 -66 26 -14 29 -14 41 3 7 9 19 17 26 17 22 0 4 72 -25 98 -25 21 -93
31 -108 15z"/>
<path d="M1771 1656 c2 -2 22 -7 43 -10 22 -4 45 -11 53 -17 7 -6 13 -7 13 -2
0 20 -26 33 -69 33 -24 0 -42 -2 -40 -4z"/>
<path d="M1990 1651 c-21 -6 -26 -14 -28 -46 l-3 -40 26 38 c18 25 33 37 50
37 13 0 27 5 30 10 7 11 -36 12 -75 1z"/>
<path d="M1777 1557 c-16 -5 -26 -14 -24 -21 3 -6 8 -20 12 -31 6 -18 5 -18
-12 2 -13 16 -22 20 -33 13 -17 -11 -16 -12 38 -39 l42 -21 50 21 c28 12 50
25 50 29 0 8 -52 41 -80 52 -8 3 -28 1 -43 -5z"/>
<path d="M385 1435 c8 -211 53 -385 147 -567 158 -309 435 -549 768 -666 426
-149 921 -73 1278 198 326 247 523 615 537 1000 3 104 3 113 -5 56 -12 -93
-37 -206 -67 -296 -46 -138 -171 -368 -193 -355 -6 3 -24 26 -41 52 l-31 45
47 46 c55 54 72 89 81 166 6 48 3 63 -24 119 -30 65 -128 177 -154 177 -7 0 4
-16 24 -35 21 -20 35 -41 32 -49 -3 -8 7 -23 23 -36 15 -12 28 -27 28 -33 1
-7 7 -22 14 -35 20 -38 23 -182 3 -212 -49 -77 -181 -153 -227 -131 -19 9 -19
10 5 11 23 1 23 2 5 10 -11 5 -37 11 -57 15 -22 3 -45 15 -57 30 -18 24 -39
35 -26 15 3 -5 4 -10 1 -10 -3 0 -35 59 -71 132 -88 177 -115 217 -177 258
-29 19 -59 41 -66 48 -19 18 -32 15 -32 -7 0 -11 -3 -27 -6 -35 -5 -14 -2 -15
21 -6 24 9 34 7 68 -17 40 -28 87 -84 121 -145 50 -90 136 -262 136 -273 0
-16 64 -45 99 -45 22 0 44 -17 105 -80 42 -44 76 -83 76 -88 0 -4 -20 -27 -44
-51 l-44 -43 -15 28 c-22 42 -56 70 -107 89 -77 28 -88 27 -25 -3 54 -26 135
-98 135 -121 0 -9 -65 -65 -130 -112 -55 -40 -114 -74 -107 -62 4 7 3 14 -3
18 -6 3 -13 -2 -17 -12 -10 -26 -29 -40 -110 -78 -91 -43 -212 -80 -327 -100
-114 -19 -324 -19 -446 0 -185 30 -428 131 -558 231 -2 1 8 23 23 48 29 50 62
76 205 162 103 63 127 80 118 89 -3 4 -62 -27 -131 -68 -68 -42 -138 -82 -155
-91 -20 -10 -38 -33 -53 -66 -12 -27 -28 -50 -34 -50 -13 0 -42 28 -46 45 -2
6 -9 9 -15 7 -11 -2 -174 154 -174 168 0 9 81 61 146 93 28 14 63 39 76 55 14
17 38 37 55 45 17 9 45 33 63 53 79 90 93 200 39 303 -17 33 -38 62 -46 65
-10 4 -7 -8 11 -38 55 -95 51 -202 -12 -276 -18 -21 -32 -43 -32 -48 0 -5 -16
-22 -36 -37 -28 -21 -51 -29 -93 -32 -72 -6 -79 -13 -12 -13 32 0 50 -4 46
-10 -3 -6 -43 -28 -88 -51 -45 -22 -94 -52 -108 -65 l-26 -25 -28 36 -27 37
33 34 c23 23 42 34 63 35 17 0 25 3 19 6 -27 10 -11 22 25 17 l37 -5 -45 17
c-63 23 -89 46 -137 122 -24 37 -43 63 -43 59 0 -14 38 -80 73 -127 l33 -45
-30 -42 c-17 -23 -35 -41 -41 -39 -15 4 -90 140 -131 236 -43 104 -72 210 -95
360 l-18 115 4 -120z m2415 -597 c22 -21 40 -44 40 -52 0 -8 -12 -29 -27 -46
l-27 -32 -18 23 c-11 13 -40 46 -66 73 -28 28 -38 44 -24 37 22 -12 32 1 11
15 -16 10 9 23 43 22 19 -1 42 -14 68 -40z"/>
<path d="M802 1482 c-46 -19 -111 -77 -99 -89 4 -3 24 9 45 29 20 20 54 42 75
49 20 7 37 17 37 21 0 11 -9 10 -58 -10z"/>
<path d="M2695 1420 c3 -5 8 -10 11 -10 2 0 4 5 4 10 0 6 -5 10 -11 10 -5 0
-7 -4 -4 -10z"/>
<path d="M926 1402 c15 -13 85 -34 91 -28 3 3 -10 13 -30 21 -39 16 -78 20
-61 7z"/>
<path d="M788 1363 c-28 -32 -47 -92 -43 -135 5 -45 32 -80 79 -105 37 -19
109 -12 136 12 39 35 13 115 -28 88 -10 -6 -16 -16 -15 -22 2 -6 -2 -22 -7
-36 -19 -49 -106 -25 -127 35 -18 52 -15 101 7 143 22 41 21 46 -2 20z"/>
<path d="M1966 1353 l-30 -25 35 7 c34 8 52 22 43 37 -8 13 -17 9 -48 -19z"/>
<path d="M1287 1350 c-29 -23 -35 -40 -14 -40 18 0 50 36 45 50 -2 7 -14 3
-31 -10z"/>
<path d="M1867 1364 c-11 -12 3 -24 29 -24 16 0 24 5 22 13 -5 13 -40 22 -51
11z"/>
<path d="M2118 1281 c-14 -34 -14 -40 -3 -31 9 8 15 8 15 2 0 -5 16 -18 35
-29 19 -10 64 -47 100 -82 36 -34 65 -60 65 -57 0 4 -9 25 -20 48 -11 22 -17
44 -15 49 3 4 -5 9 -17 11 -13 2 -22 9 -20 16 1 6 -2 12 -6 12 -5 0 -19 9 -32
20 -13 11 -31 20 -40 20 -21 0 -36 17 -42 45 -2 14 -8 8 -20 -24z"/>
<path d="M1559 1308 c-1 -2 -3 -14 -4 -28 -5 -37 -23 -80 -34 -80 -11 0 -36
-69 -28 -77 8 -7 39 43 62 100 23 56 39 65 43 23 5 -39 -15 -111 -45 -163 -14
-24 -26 -55 -28 -70 -3 -28 -3 -28 30 10 18 20 35 37 37 37 10 0 -12 -82 -29
-110 -8 -15 -56 -51 -105 -81 -106 -64 -135 -85 -127 -93 12 -13 200 105 244
154 20 22 64 208 65 273 0 28 3 36 13 30 6 -4 -3 12 -21 35 -19 23 -42 42 -53
42 -10 0 -20 -1 -20 -2z"/>
<path d="M1897 1278 c-30 -16 -18 -23 42 -25 59 -3 88 10 60 27 -17 11 -81 10
-102 -2z"/>
<path d="M2718 1238 c46 -21 70 -16 38 8 -11 8 -34 14 -50 13 -31 -1 -30 -1
12 -21z"/>
<path d="M1444 1208 c-33 -36 -117 -110 -149 -132 -11 -8 -17 -18 -13 -22 13
-12 164 121 189 167 14 27 7 24 -27 -13z"/>
<path d="M1927 1208 c19 -18 24 -19 38 -8 19 16 4 30 -35 30 l-24 0 21 -22z"/>
<path d="M2090 1225 c0 -3 18 -38 39 -80 60 -115 151 -225 185 -225 5 0 -9 16
-32 36 -23 19 -42 44 -42 55 0 10 -4 19 -9 19 -5 0 -23 22 -41 49 -26 41 -29
53 -20 70 8 16 8 21 -3 21 -7 0 -23 14 -35 30 -20 26 -42 40 -42 25z"/>
<path d="M2595 1199 c-34 -30 -37 -37 -32 -71 3 -21 11 -45 18 -54 18 -22 21
-11 5 21 -27 52 27 106 91 91 29 -8 93 -72 93 -93 0 -7 5 -13 10 -13 16 0 12
19 -17 71 -14 27 -32 49 -39 49 -7 0 -14 4 -16 9 -1 5 -19 12 -39 16 -32 6
-41 2 -74 -26z"/>
<path d="M2537 1213 c-4 -3 -7 -13 -7 -22 1 -13 3 -13 11 2 11 19 8 33 -4 20z"/>
<path d="M2797 1160 c29 -56 39 -60 22 -9 -13 38 -27 59 -40 59 -4 0 4 -23 18
-50z"/>
<path d="M2034 1152 c-16 -22 -19 -35 -13 -67 4 -22 8 -57 8 -77 1 -21 5 -38
11 -38 5 0 7 -6 4 -14 -11 -30 127 -121 211 -139 26 -6 28 -5 11 6 -10 6 -53
37 -96 69 -95 69 -133 134 -128 214 l3 49 13 -30 c40 -93 99 -191 109 -182 2
3 -16 47 -40 99 -24 51 -47 103 -51 116 -9 28 -16 27 -42 -6z"/>
<path d="M2626 1111 c-4 -5 0 -12 6 -14 10 -4 9 -8 -2 -16 -13 -10 -12 -13 4
-26 27 -21 35 -19 46 11 7 19 7 31 -1 40 -13 16 -45 19 -53 5z"/>
<path d="M1845 1092 c16 -17 117 -20 123 -3 3 10 -2 11 -19 5 -28 -8 -32 -8
-79 1 -25 6 -32 5 -25 -3z"/>
<path d="M2741 986 c-26 -27 -84 -46 -126 -41 -30 5 -30 5 3 -7 47 -16 99 -1
130 40 29 37 25 42 -7 8z"/>
<path d="M2586 795 c20 -25 39 -43 42 -41 6 7 -57 86 -70 86 -5 0 7 -20 28
-45z"/>
<path d="M1750 780 c-21 -18 -21 -20 -5 -26 21 -9 49 7 53 30 5 22 -20 20 -48
-4z"/>
<path d="M1900 779 c0 -12 61 -11 79 0 10 6 -1 9 -32 9 -26 0 -47 -4 -47 -9z"/>
</g>
</svg>
